<svg width="14" height="14" viewBox="0 0 14 14" fill="none" xmlns="http://www.w3.org/2000/svg">
<path fill-rule="evenodd" clip-rule="evenodd" d="M2.60427 9.02096C3.15125 8.47398 3.89312 8.16669 4.66667 8.16669H9.33333C10.1069 8.16669 10.8487 8.47398 11.3957 9.02096C11.9427 9.56794 12.25 10.3098 12.25 11.0834V12.25C12.25 12.5722 11.9888 12.8334 11.6667 12.8334C11.3445 12.8334 11.0833 12.5722 11.0833 12.25V11.0834C11.0833 10.6192 10.899 10.1741 10.5708 9.84592C10.2426 9.51773 9.79746 9.33335 9.33333 9.33335H4.66667C4.20254 9.33335 3.75742 9.51773 3.42923 9.84592C3.10104 10.1741 2.91667 10.6192 2.91667 11.0834V12.25C2.91667 12.5722 2.6555 12.8334 2.33333 12.8334C2.01117 12.8334 1.75 12.5722 1.75 12.25V11.0834C1.75 10.3098 2.05729 9.56794 2.60427 9.02096Z" fill="white"/>
<path fill-rule="evenodd" clip-rule="evenodd" d="M6.99992 2.33335C6.03342 2.33335 5.24992 3.11686 5.24992 4.08335C5.24992 5.04985 6.03342 5.83335 6.99992 5.83335C7.96642 5.83335 8.74992 5.04985 8.74992 4.08335C8.74992 3.11686 7.96642 2.33335 6.99992 2.33335ZM4.08325 4.08335C4.08325 2.47252 5.38909 1.16669 6.99992 1.16669C8.61075 1.16669 9.91659 2.47252 9.91659 4.08335C9.91659 5.69418 8.61075 7.00002 6.99992 7.00002C5.38909 7.00002 4.08325 5.69418 4.08325 4.08335Z" fill="white"/>
</svg>
